# xmcd
#
# Track frame offsets: 
#        150
#        8243
#        21875
#        41654
#        65233
#        85900
#        110828
#        133915
#        162454
#        186587
#        199572
#        222959
#
# Disc length: 3337 seconds
#
# Revision: 0
# Processed by: cddbd v1.5.2PL0 Copyright (c) Steve Scherf et al.
# Submitted via: ExactAudioCopyFreeDBPlugin 1.0
#
DISCID=b70d070c
DTITLE=Joe Bonamassa - Live in Amsterdam
DYEAR=2014
DGENRE=Blues
TTITLE0=Amsterdam, Amsterdam
TTITLE1=Them There Eyes
TTITLE2=Sinner's Prayer
TTITLE3=Can't let go
TTITLE4=For My Friends
TTITLE5=Close To My Fire
TTITLE6=Rhymes
TTITLE7=Something's Got A Hold On Me
TTITLE8=Your Heart is As Black As Night
TTITLE9=Chocolate Jesus
TTITLE10=Baddest Blues
TTITLE11=Someday After Awhile (You'll Be Sorry)
EXTD=
EXTT0=
EXTT1=
EXTT2=
EXTT3=
EXTT4=
EXTT5=
EXTT6=
EXTT7=
EXTT8=
EXTT9=
EXTT10=
EXTT11=
PLAYORDER=
